<svg width="149" height="30" viewBox="0 0 149 30" fill="none" xmlns="http://www.w3.org/2000/svg">
<path d="M7.00901 29H0.436005V2.162H7.00901V29ZM4.174 23.477H18.202V29H4.174V23.477Z" fill="#141414"/>
<path d="M27.2149 8.357V20.495C27.2149 21.251 27.3129 21.909 27.5089 22.469C27.7049 23.015 28.0339 23.442 28.4959 23.75C28.9579 24.044 29.5879 24.191 30.3859 24.191C31.0579 24.191 31.6389 24.072 32.1289 23.834C32.6329 23.596 33.0529 23.274 33.3889 22.868C33.7389 22.462 33.9979 22.014 34.1659 21.524L35.1529 24.527H34.0609C33.8369 25.451 33.4659 26.291 32.9479 27.047C32.4439 27.803 31.7439 28.398 30.8479 28.832C29.9659 29.266 28.8319 29.483 27.4459 29.483C25.9199 29.483 24.6599 29.189 23.6659 28.601C22.6859 27.999 21.9579 27.11 21.4819 25.934C21.0199 24.758 20.7889 23.288 20.7889 21.524V8.357H27.2149ZM40.4869 8.357V29H34.1029L34.3129 23.834L34.0609 23.246V8.357H40.4869Z" fill="#141414"/>
<path d="M53.671 29.546C50.395 29.546 47.966 28.685 46.384 26.963C44.802 25.241 44.011 22.819 44.011 19.697V17.555C44.011 14.489 44.802 12.095 46.384 10.373C47.966 8.651 50.388 7.79 53.65 7.79C54.49 7.79 55.274 7.853 56.002 7.979C56.73 8.091 57.402 8.252 58.018 8.462C58.634 8.672 59.173 8.896 59.635 9.134L60.16 14.447C59.474 14.055 58.718 13.733 57.892 13.481C57.066 13.215 56.135 13.082 55.099 13.082C53.475 13.082 52.299 13.474 51.571 14.258C50.843 15.042 50.479 16.176 50.479 17.66V19.445C50.479 20.957 50.864 22.119 51.634 22.931C52.404 23.743 53.608 24.149 55.246 24.149C56.268 24.149 57.185 24.03 57.997 23.792C58.823 23.54 59.607 23.218 60.349 22.826L59.845 28.16C59.117 28.552 58.221 28.881 57.157 29.147C56.093 29.413 54.931 29.546 53.671 29.546Z" fill="#141414"/>
<path d="M63.5732 29V8.357H69.9992V29H63.5732ZM66.7862 6.404C65.5822 6.404 64.7072 6.131 64.1612 5.585C63.6152 5.025 63.3422 4.276 63.3422 3.338V3.191C63.3422 2.253 63.6152 1.511 64.1612 0.964997C64.7072 0.418996 65.5822 0.145996 66.7862 0.145996C67.9622 0.145996 68.8232 0.418996 69.3692 0.964997C69.9292 1.511 70.2092 2.253 70.2092 3.191V3.338C70.2092 4.29 69.9292 5.039 69.3692 5.585C68.8232 6.131 67.9622 6.404 66.7862 6.404Z" fill="#141414"/>
<path d="M86.1213 29L86.3103 23.834L86.1633 23.519V17.072L86.1213 16.232C86.1213 15.084 85.7853 14.237 85.1133 13.691C84.4413 13.145 83.3143 12.872 81.7323 12.872C80.3463 12.872 79.0303 13.047 77.7843 13.397C76.5383 13.747 75.3623 14.146 74.2563 14.594L74.8023 9.617C75.4603 9.309 76.1953 9.022 77.0073 8.756C77.8333 8.476 78.7433 8.252 79.7373 8.084C80.7313 7.916 81.7952 7.832 82.9293 7.832C84.7353 7.832 86.2473 8.042 87.4653 8.462C88.6833 8.882 89.6563 9.477 90.3843 10.247C91.1123 11.017 91.6373 11.941 91.9593 13.019C92.2812 14.083 92.4423 15.259 92.4423 16.547V29H86.1213ZM79.5483 29.483C77.4903 29.483 75.9293 28.965 74.8653 27.929C73.8013 26.893 73.2693 25.416 73.2693 23.498V22.931C73.2693 20.901 73.8923 19.403 75.1383 18.437C76.3983 17.457 78.3932 16.792 81.1233 16.442L86.6673 15.707L87.0453 19.571L82.1313 20.285C81.1373 20.411 80.4373 20.642 80.0313 20.978C79.6253 21.314 79.4223 21.811 79.4223 22.469V22.616C79.4223 23.246 79.6253 23.75 80.0313 24.128C80.4373 24.492 81.0882 24.674 81.9843 24.674C82.7682 24.674 83.4403 24.555 84.0003 24.317C84.5742 24.079 85.0433 23.771 85.4073 23.393C85.7713 23.001 86.0443 22.567 86.2263 22.091L87.1293 24.695H86.0793C85.8553 25.591 85.5053 26.403 85.0293 27.131C84.5673 27.859 83.8953 28.433 83.0133 28.853C82.1313 29.273 80.9763 29.483 79.5483 29.483Z" fill="#141414"/>
<path d="M109.719 29V16.862C109.719 16.106 109.621 15.455 109.425 14.909C109.229 14.349 108.9 13.922 108.438 13.628C107.976 13.334 107.346 13.187 106.548 13.187C105.89 13.187 105.309 13.306 104.805 13.544C104.301 13.768 103.874 14.083 103.524 14.489C103.188 14.881 102.936 15.329 102.768 15.833L101.781 12.83H102.873C103.097 11.892 103.461 11.052 103.965 10.31C104.483 9.568 105.19 8.98 106.086 8.546C106.982 8.098 108.116 7.874 109.488 7.874C111.028 7.874 112.288 8.175 113.268 8.777C114.248 9.365 114.969 10.247 115.431 11.423C115.907 12.599 116.145 14.069 116.145 15.833V29H109.719ZM96.4467 29V8.357H102.831L102.621 13.523L102.873 14.132V29H96.4467Z" fill="#141414"/>
<path d="M132.059 29L132.248 23.834L132.101 23.519V17.072L132.059 16.232C132.059 15.084 131.723 14.237 131.051 13.691C130.379 13.145 129.252 12.872 127.67 12.872C126.284 12.872 124.968 13.047 123.722 13.397C122.476 13.747 121.3 14.146 120.194 14.594L120.74 9.617C121.398 9.309 122.133 9.022 122.945 8.756C123.771 8.476 124.681 8.252 125.675 8.084C126.669 7.916 127.733 7.832 128.867 7.832C130.673 7.832 132.185 8.042 133.403 8.462C134.621 8.882 135.594 9.477 136.322 10.247C137.05 11.017 137.575 11.941 137.897 13.019C138.219 14.083 138.38 15.259 138.38 16.547V29H132.059ZM125.486 29.483C123.428 29.483 121.867 28.965 120.803 27.929C119.739 26.893 119.207 25.416 119.207 23.498V22.931C119.207 20.901 119.83 19.403 121.076 18.437C122.336 17.457 124.331 16.792 127.061 16.442L132.605 15.707L132.983 19.571L128.069 20.285C127.075 20.411 126.375 20.642 125.969 20.978C125.563 21.314 125.36 21.811 125.36 22.469V22.616C125.36 23.246 125.563 23.75 125.969 24.128C126.375 24.492 127.026 24.674 127.922 24.674C128.706 24.674 129.378 24.555 129.938 24.317C130.512 24.079 130.981 23.771 131.345 23.393C131.709 23.001 131.982 22.567 132.164 22.091L133.067 24.695H132.017C131.793 25.591 131.443 26.403 130.967 27.131C130.505 27.859 129.833 28.433 128.951 28.853C128.069 29.273 126.914 29.483 125.486 29.483Z" fill="#141414"/>
<path d="M145.24 29.567C144.036 29.567 143.147 29.259 142.573 28.643C142.013 28.027 141.733 27.166 141.733 26.06V25.829C141.733 24.737 142.013 23.876 142.573 23.246C143.147 22.616 144.036 22.301 145.24 22.301C146.416 22.301 147.291 22.616 147.865 23.246C148.439 23.876 148.726 24.737 148.726 25.829V26.06C148.726 27.166 148.439 28.027 147.865 28.643C147.291 29.259 146.416 29.567 145.24 29.567Z" fill="#141414"/>
</svg>
